<svg width="13" height="16" viewBox="0 0 13 16" fill="none" xmlns="http://www.w3.org/2000/svg">
<g clip-path="url(#clip0)">
<path d="M6.87585 5.19922C8.24271 5.19922 9.34981 4.1198 9.34981 2.78711C9.34981 1.45442 8.24271 0.375 6.87585 0.375C5.50899 0.375 4.40189 1.45442 4.40189 2.78711C4.40189 4.1198 5.50899 5.19922 6.87585 5.19922ZM5.22448 12.7009L6.01615 11.736L4.1143 10.1923L2.69486 11.923C2.34232 12.3511 2.33305 12.9602 2.67012 13.4004L4.1545 15.3301C4.3988 15.6467 4.7699 15.8125 5.14408 15.8125C5.40075 15.8125 5.66361 15.7341 5.88627 15.5713C6.43363 15.1733 6.54187 14.4165 6.13366 13.8828L5.22448 12.7009ZM9.63741 10.1923L7.73555 11.736L8.52722 12.7009L7.61804 13.8828C7.20984 14.4165 7.31807 15.1733 7.86544 15.5713C8.08809 15.7341 8.34786 15.8125 8.60762 15.8125C8.9849 15.8125 9.356 15.6467 9.59721 15.3301L11.0816 13.4004C11.4187 12.9602 11.4094 12.3511 11.0568 11.923L9.63741 10.1923ZM12.5876 4.74695C12.1949 4.20121 11.4248 4.07156 10.8651 4.45146L9.60958 5.31078C7.97986 6.42638 5.76876 6.42638 4.14213 5.31078L2.88659 4.45448C2.32686 4.07156 1.55684 4.20422 1.1641 4.74695C0.771361 5.29269 0.907428 6.04346 1.46407 6.42638L2.7196 7.28569C3.24532 7.64449 3.81433 7.91586 4.40189 8.12692V9.05859H9.34981V8.12993C9.93738 7.91887 10.5064 7.64751 11.0321 7.28871L12.2876 6.42939C12.8474 6.04346 12.9803 5.29269 12.5876 4.74695Z" fill="white"/>
</g>
<defs>
<clipPath id="clip0">
<rect width="11.875" height="15.4375" fill="white" transform="translate(0.9375 0.375)"/>
</clipPath>
</defs>
</svg>
