<svg width="12" height="16" viewBox="0 0 12 16" fill="none" xmlns="http://www.w3.org/2000/svg">
<g clip-path="url(#clip0)">
<path d="M5.93835 4.82422C7.30521 4.82422 8.41231 3.7448 8.41231 2.41211C8.41231 1.07942 7.30521 0 5.93835 0C4.57149 0 3.46439 1.07942 3.46439 2.41211C3.46439 3.7448 4.57149 4.82422 5.93835 4.82422ZM4.28698 12.3259L5.07865 11.361L3.1768 9.81729L1.75736 11.548C1.40482 11.9761 1.39555 12.5852 1.73262 13.0254L3.217 14.9551C3.4613 15.2717 3.8324 15.4375 4.20658 15.4375C4.46325 15.4375 4.72611 15.3591 4.94877 15.1963C5.49613 14.7983 5.60437 14.0415 5.19616 13.5078L4.28698 12.3259ZM8.69991 9.81729L6.79805 11.361L7.58972 12.3259L6.68054 13.5078C6.27234 14.0415 6.38057 14.7983 6.92794 15.1963C7.15059 15.3591 7.41036 15.4375 7.67012 15.4375C8.0474 15.4375 8.4185 15.2717 8.65971 14.9551L10.1441 13.0254C10.4812 12.5852 10.4719 11.9761 10.1193 11.548L8.69991 9.81729ZM11.6501 4.37195C11.2574 3.82621 10.4873 3.69656 9.92761 4.07646L8.67208 4.93578C7.04236 6.05138 4.83126 6.05138 3.20463 4.93578L1.94909 4.07948C1.38936 3.69656 0.619342 3.82922 0.226601 4.37195C-0.166139 4.91769 -0.0300717 5.66846 0.526569 6.05138L1.7821 6.91069C2.30782 7.26949 2.87683 7.54086 3.46439 7.75192V8.68359H8.41231V7.75493C8.99988 7.54387 9.56888 7.27251 10.0946 6.91371L11.3501 6.05439C11.9099 5.66846 12.0428 4.91769 11.6501 4.37195Z" fill="#1A1A1A"/>
</g>
<defs>
<clipPath id="clip0">
<rect width="11.875" height="15.4375" fill="white"/>
</clipPath>
</defs>
</svg>
