<svg width="9" height="9" viewBox="0 0 9 9" fill="none" xmlns="http://www.w3.org/2000/svg">
<path d="M1.00235 0.277922L0.931641 0.207211L0.86093 0.277922L0.276946 0.861907L0.206235 0.932617L0.276946 1.00333L3.77362 4.5L0.276946 7.99667L0.206235 8.06738L0.276946 8.13809L0.86093 8.72208L0.931641 8.79279L1.00235 8.72208L4.49902 5.22541L7.9957 8.72208L8.06641 8.79279L8.13712 8.72208L8.7211 8.13809L8.79181 8.06738L8.7211 7.99667L5.22443 4.5L8.7211 1.00333L8.79181 0.932617L8.7211 0.861907L8.13712 0.277922L8.06641 0.207211L7.9957 0.277922L4.49902 3.77459L1.00235 0.277922Z" fill="white" stroke="white" stroke-width="0.2"/>
</svg>
