<svg width="54" height="54" viewBox="0 0 54 54" fill="none" xmlns="http://www.w3.org/2000/svg">
<path d="M16.084 10.125L7.11914 20.8828L6.27539 21.8848L7.11914 22.9922L25.6816 46.6172L27 48.3047L28.3184 46.6172L46.8809 22.9922L47.7246 21.8848L46.8809 20.8828L37.916 10.125H16.084ZM17.666 13.5H23.8359L19.3008 20.25H12.0234L17.666 13.5ZM30.1641 13.5H36.334L41.9766 20.25H34.6992L30.1641 13.5ZM27 14.9238L30.5859 20.25H23.4141L27 14.9238ZM11.8652 23.625H18.9844L22.9922 37.8105L11.8652 23.625ZM22.4648 23.625H31.4824L27 39.3398L22.4648 23.625ZM35.0156 23.625H42.1348L31.0078 37.7578L35.0156 23.625Z" fill="#FF7B1B"/>
</svg>
