<svg width="20" height="20" viewBox="0 0 20 20" fill="none" xmlns="http://www.w3.org/2000/svg">
<path d="M12.6953 1.875L12.5391 2.28516L10.8203 6.875H6.01562C5.44434 6.875 4.90234 7.03613 4.45312 7.32422L2.94922 5.80078L2.05078 6.69922L3.57422 8.20312C3.28613 8.65234 3.125 9.19434 3.125 9.76562C3.125 10.0806 3.17871 10.4028 3.28125 10.7031L3.73047 12.0117L3.14453 14.2188L3.125 14.2969V17.5H4.375V14.4531L4.98047 12.168L5.01953 11.9727L4.96094 11.7969L4.45312 10.293C4.39697 10.1245 4.375 9.94385 4.375 9.76562C4.375 8.84766 5.09766 8.125 6.01562 8.125H11.0352L13.125 10.1758V8.41797L11.9922 7.30469L13.2812 3.84766L13.4375 4.08203L13.6133 4.375H14.7852L16.6992 5.82031L16.1719 6.875H13.75V10.5469L13.1641 12.3047L13.125 12.4023V14.4531L13.75 16.9531V17.5H15V16.7969L14.375 14.2969V12.5781L14.9609 10.8203L15 10.7227V8.125H16.9531L18.3008 5.42969L17.8711 5.11719L15.2148 3.125H14.3164L13.7109 2.16797L13.5352 1.875H12.6953ZM6.38672 11.25L5.625 14.2969V17.5H6.875V14.4531L7.36328 12.5H7.94922C8.16895 12.6465 8.94531 13.125 10 13.125H10.625V14.4531L11.25 16.9531V17.5H12.5V16.7969L11.875 14.2969V11.875H10C9.33594 11.875 8.47656 11.3477 8.47656 11.3477L8.32031 11.25H6.38672Z" fill="black"/>
</svg>
