<svg width="38" height="34" viewBox="0 0 38 34" fill="none" xmlns="http://www.w3.org/2000/svg">
<path d="M1.08794 4.78895L0.734768 5.14211L1.08755 5.49567L12.5668 17L1.08755 28.5043L0.734767 28.8579L1.08794 29.2111L4.73043 32.8536L5.08399 33.2071L5.43754 32.8536L20.9375 17.3536L21.2911 17L20.9375 16.6464L5.43754 1.14645L5.08399 0.792892L4.73043 1.14645L1.08794 4.78895ZM16.5879 4.78895L16.2348 5.14211L16.5875 5.49567L28.0668 17L16.5875 28.5043L16.2348 28.8579L16.5879 29.2111L20.2304 32.8536L20.584 33.2071L20.9375 32.8536L36.4375 17.3536L36.7911 17L36.4375 16.6464L20.9375 1.14645L20.584 0.792892L20.2304 1.14645L16.5879 4.78895Z" stroke="white"/>
</svg>
