<svg width="20" height="20" viewBox="0 0 20 20" fill="none" xmlns="http://www.w3.org/2000/svg">
<path d="M7.5 1.25L5.625 3.125H9.375L7.5 1.25ZM10.625 1.25L12.5 3.125L14.375 1.25H10.625ZM2.5 5V18.125H17.5V5H2.5ZM3.75 6.25H16.25V16.875H3.75V6.25ZM7.1875 6.875C6.33301 6.875 5.625 7.58301 5.625 8.4375C5.625 8.91602 5.84961 9.34082 6.19141 9.62891C5.49072 9.99512 5 10.7202 5 11.5625V13.75H5.625V16.25H6.875V12.5H6.25V11.5625C6.25 11.0376 6.6626 10.625 7.1875 10.625C7.7124 10.625 8.125 11.0376 8.125 11.5625V12.5H7.5V16.25H8.75V13.75H9.375V11.5625C9.375 10.7202 8.88428 9.99512 8.18359 9.62891C8.52539 9.34082 8.75 8.91602 8.75 8.4375C8.75 7.58301 8.04199 6.875 7.1875 6.875ZM12.8125 6.875C11.958 6.875 11.25 7.58301 11.25 8.4375C11.25 8.91602 11.4746 9.34082 11.8164 9.62891C11.1157 9.99512 10.625 10.7202 10.625 11.5625V13.75H11.25V16.25H12.5V12.5H11.875V11.5625C11.875 11.0376 12.2876 10.625 12.8125 10.625C13.3374 10.625 13.75 11.0376 13.75 11.5625V12.5H13.125V16.25H14.375V13.75H15V11.5625C15 10.7202 14.5093 9.99512 13.8086 9.62891C14.1504 9.34082 14.375 8.91602 14.375 8.4375C14.375 7.58301 13.667 6.875 12.8125 6.875ZM7.1875 8.125C7.36816 8.125 7.5 8.25684 7.5 8.4375C7.5 8.61816 7.36816 8.75 7.1875 8.75C7.00684 8.75 6.875 8.61816 6.875 8.4375C6.875 8.25684 7.00684 8.125 7.1875 8.125ZM12.8125 8.125C12.9932 8.125 13.125 8.25684 13.125 8.4375C13.125 8.61816 12.9932 8.75 12.8125 8.75C12.6318 8.75 12.5 8.61816 12.5 8.4375C12.5 8.25684 12.6318 8.125 12.8125 8.125Z" fill="black"/>
</svg>
