<svg width="54" height="54" viewBox="0 0 54 54" fill="none" xmlns="http://www.w3.org/2000/svg">
<path d="M27 5.0625C14.8513 5.0625 5.0625 14.8513 5.0625 27C5.0625 39.1487 14.8513 48.9375 27 48.9375C39.1487 48.9375 48.9375 39.1487 48.9375 27C48.9375 24.6401 48.6211 22.2869 47.7773 20.0918L45.0352 22.7812C45.3713 24.1326 45.5625 25.4839 45.5625 27C45.5625 37.2964 37.2964 45.5625 27 45.5625C16.7036 45.5625 8.4375 37.2964 8.4375 27C8.4375 16.7036 16.7036 8.4375 27 8.4375C32.0625 8.4375 36.6108 10.4546 39.8145 13.6582L42.1875 11.2852C38.3049 7.40259 32.9062 5.0625 27 5.0625ZM46.0371 12.2871L27 31.3242L19.7754 24.0996L17.3496 26.5254L25.7871 34.9629L27 36.123L28.2129 34.9629L48.4629 14.7129L46.0371 12.2871Z" fill="#1A1A1A"/>
</svg>
