<svg width="27" height="27" viewBox="0 0 27 27" fill="none" xmlns="http://www.w3.org/2000/svg">
<path d="M12.69 4.60291C11.6442 4.60291 10.7533 5.28535 10.4152 6.22055H3.79297V7.8382H10.4152C10.7533 8.7734 11.6442 9.45585 12.69 9.45585C13.7358 9.45585 14.6268 8.7734 14.9648 7.8382H23.2047V6.22055H14.9648C14.6268 5.28535 13.7358 4.60291 12.69 4.60291ZM12.69 6.22055C13.145 6.22055 13.4989 6.57441 13.4989 7.02938C13.4989 7.48434 13.145 7.8382 12.69 7.8382C12.2351 7.8382 11.8812 7.48434 11.8812 7.02938C11.8812 6.57441 12.2351 6.22055 12.69 6.22055ZM18.3518 11.0735C17.306 11.0735 16.415 11.7559 16.077 12.6911H3.79297V14.3088H16.077C16.415 15.244 17.306 15.9264 18.3518 15.9264C19.3976 15.9264 20.2885 15.244 20.6266 14.3088H23.2047V12.6911H20.6266C20.2885 11.7559 19.3976 11.0735 18.3518 11.0735ZM18.3518 12.6911C18.8068 12.6911 19.1606 13.045 19.1606 13.5C19.1606 13.9549 18.8068 14.3088 18.3518 14.3088C17.8968 14.3088 17.543 13.9549 17.543 13.5C17.543 13.045 17.8968 12.6911 18.3518 12.6911ZM9.45473 17.5441C8.40895 17.5441 7.51798 18.2265 7.17992 19.1617H3.79297V20.7794H7.17992C7.51798 21.7146 8.40895 22.397 9.45473 22.397C10.5005 22.397 11.3915 21.7146 11.7295 20.7794H23.2047V19.1617H11.7295C11.3915 18.2265 10.5005 17.5441 9.45473 17.5441ZM9.45473 19.1617C9.9097 19.1617 10.2636 19.5156 10.2636 19.9706C10.2636 20.4255 9.9097 20.7794 9.45473 20.7794C8.99977 20.7794 8.64591 20.4255 8.64591 19.9706C8.64591 19.5156 8.99977 19.1617 9.45473 19.1617Z" fill="#8A29E3"/>
</svg>
