<svg width="38" height="38" viewBox="0 0 38 38" fill="none" xmlns="http://www.w3.org/2000/svg">
<g opacity="0.89">
<path d="M11.3995 5.32001C5.95187 5.32001 1.51953 9.75235 1.51953 15.2C1.51953 26.4189 14.208 31.9556 18.5245 35.5538L18.9995 35.9575L19.4745 35.5538C23.7911 31.9556 36.4795 26.4189 36.4795 15.2C36.4795 9.75235 32.0472 5.32001 26.5995 5.32001C23.518 5.32001 20.8105 6.7836 18.9995 9.00126C17.1886 6.7836 14.4811 5.32001 11.3995 5.32001ZM11 9.00126C6 8 10.5037 13.7437 12 16L18.9995 34.0338L29.5 27C30.9963 24.7437 23.6842 6.84001 26.5995 6.84001C24.5 5.5 22.5 8.87469 22.5 13.5C22.5 23.3028 24.0108 30.0764 18.9995 34.0338C13.5 13 12.5 16.5 12 16C12 11.3747 12.0342 18.1211 11 9.00126Z" fill="#FF7B1B"/>
</g>
</svg>
