<svg width="38" height="38" viewBox="0 0 38 38" fill="none" xmlns="http://www.w3.org/2000/svg">
<path d="M11.3995 5.32007C5.95187 5.32007 1.51953 9.75241 1.51953 15.2001C1.51953 26.419 14.208 31.9557 18.5245 35.5538L18.9995 35.9576L19.4745 35.5538C23.7911 31.9557 36.4795 26.419 36.4795 15.2001C36.4795 9.75241 32.0472 5.32007 26.5995 5.32007C23.518 5.32007 20.8105 6.78366 18.9995 9.00132C17.1886 6.78366 14.4811 5.32007 11.3995 5.32007ZM11.3995 6.84007C14.3148 6.84007 16.862 8.33632 18.3583 10.5926L18.9995 11.5426L19.6408 10.5926C21.137 8.33632 23.6842 6.84007 26.5995 6.84007C31.2248 6.84007 34.9595 10.5748 34.9595 15.2001C34.9595 25.0029 24.0108 30.0765 18.9995 34.0338C13.9883 30.0765 3.03953 25.0029 3.03953 15.2001C3.03953 10.5748 6.77422 6.84007 11.3995 6.84007Z" fill="#8A29E3"/>
</svg>
