<svg width="38" height="38" viewBox="0 0 38 38" fill="none" xmlns="http://www.w3.org/2000/svg">
<path d="M11.3995 5.32001C5.95187 5.32001 1.51953 9.75235 1.51953 15.2C1.51953 26.4189 14.208 31.9556 18.5245 35.5538L18.9995 35.9575L19.4745 35.5538C23.7911 31.9556 36.4795 26.4189 36.4795 15.2C36.4795 9.75235 32.0472 5.32001 26.5995 5.32001C23.518 5.32001 20.8105 6.7836 18.9995 9.00126C17.1886 6.7836 14.4811 5.32001 11.3995 5.32001ZM11.3995 6.84001C14.3148 6.84001 16.862 8.33626 18.3583 10.5925L18.9995 11.5425L19.6408 10.5925C21.137 8.33626 23.6842 6.84001 26.5995 6.84001C31.2248 6.84001 34.9595 10.5747 34.9595 15.2C34.9595 25.0028 24.0108 30.0764 18.9995 34.0338C13.9883 30.0764 3.03953 25.0028 3.03953 15.2C3.03953 10.5747 6.77422 6.84001 11.3995 6.84001Z" fill="white"/>
</svg>
