<svg width="20" height="20" viewBox="0 0 20 20" fill="none" xmlns="http://www.w3.org/2000/svg">
<path fill-rule="evenodd" clip-rule="evenodd" d="M6.13819 0H14.1398C17.188 0 19.6647 2.47668 19.6647 5.52491V13.5265C19.6647 16.5747 17.188 19.0514 14.1398 19.0514H6.13819C3.08997 19.0514 0.613281 16.5747 0.613281 13.5265V5.52491C0.613281 2.47668 3.08997 0 6.13819 0ZM5.9485 1.90513C4.05288 1.90513 2.51924 3.43877 2.51924 5.33439V13.717C2.51924 15.6126 4.05288 17.1463 5.9485 17.1463H14.3311C16.2267 17.1463 17.7604 15.6126 17.7604 13.717V5.33439C17.7604 3.43877 16.2267 1.90513 14.3311 1.90513H5.9485ZM16.3311 4.5247C16.3311 3.86743 15.7977 3.33399 15.1404 3.33399C14.4831 3.33399 13.9497 3.86743 13.9497 4.5247C13.9497 5.18198 14.4831 5.71542 15.1404 5.71542C15.7977 5.71542 16.3311 5.18198 16.3311 4.5247ZM10.1408 4.76285C12.7699 4.76285 14.9036 6.89661 14.9036 9.5257C14.9036 12.1548 12.7699 14.2886 10.1408 14.2886C7.5117 14.2886 5.37794 12.1548 5.37794 9.5257C5.37794 6.89661 7.5117 4.76285 10.1408 4.76285ZM7.28301 9.5257C7.28301 7.94443 8.55946 6.66799 10.1407 6.66799C11.722 6.66799 12.9984 7.94443 12.9984 9.5257C12.9984 11.107 11.722 12.3834 10.1407 12.3834C8.55946 12.3834 7.28301 11.107 7.28301 9.5257Z" fill="white"/>
</svg>
