<svg width="20" height="20" viewBox="0 0 20 20" fill="none" xmlns="http://www.w3.org/2000/svg">
<path d="M11.5625 3.41797L10.918 3.49609L8.41797 3.80859L7.8125 3.88672L7.87109 4.51172L7.98828 5.64453L2.48047 6.30859L2.63672 7.55859L3.125 7.5V8.75H1.875V10H3.125V13.75C3.125 15.4663 4.53369 16.875 6.25 16.875H13.75C15.4663 16.875 16.875 15.4663 16.875 13.75V10H18.125V8.75H16.875V6.875H8.18359L17.3828 5.74219L17.2266 4.51172L11.7383 5.17578L11.6211 4.0625L11.5625 3.41797ZM10.4492 4.82422L10.5078 5.33203L9.23828 5.48828L9.17969 4.98047L10.4492 4.82422ZM4.375 8.125H15.625V13.75C15.625 14.7852 14.7852 15.625 13.75 15.625H6.25C5.21484 15.625 4.375 14.7852 4.375 13.75V8.125Z" fill="black"/>
</svg>
