<svg width="27" height="27" viewBox="0 0 27 27" fill="none" xmlns="http://www.w3.org/2000/svg">
<path d="M21.3752 13.4999H25.1102L19.5415 19.0686L13.9727 13.4999H19.0915C19.1252 11.7674 18.4727 10.0461 17.1452 8.71864C14.5127 6.08614 10.2377 6.08614 7.60524 8.71864C4.97274 11.3511 4.97274 15.6374 7.60524 18.2699C9.67524 20.3399 12.7802 20.7786 15.2777 19.5861L16.9315 21.2399C13.5002 23.2761 9.00024 22.8261 6.00774 19.8561C2.49774 16.3461 2.50899 10.6536 6.01899 7.14364C9.56274 3.62239 15.2215 3.61114 18.7427 7.13239C20.4977 8.88739 21.3752 11.1936 21.3752 13.4999Z" fill="#FF7B1B"/>
</svg>
