<svg width="19" height="19" viewBox="0 0 19 19" fill="none" xmlns="http://www.w3.org/2000/svg">
<path d="M17.1077 12.9512L15.846 12.2223C16.0743 11.9872 16.3362 11.7871 16.623 11.6286C16.8106 11.5228 16.9488 11.3473 17.0075 11.1401C17.0663 10.933 17.0408 10.711 16.9367 10.5226C16.8325 10.3341 16.6581 10.1944 16.4515 10.1339C16.2449 10.0734 16.0227 10.097 15.8334 10.1995C15.2856 10.5027 14.8002 10.9069 14.4028 11.3907L11.1331 9.5L14.402 7.61262C14.7993 8.09654 15.2847 8.50075 15.8326 8.80383C15.9265 8.85677 16.03 8.89059 16.137 8.90334C16.2441 8.91609 16.3526 8.90751 16.4563 8.8781C16.56 8.8487 16.6568 8.79904 16.7413 8.732C16.8257 8.66497 16.896 8.58187 16.9481 8.48752C17.0003 8.39317 17.0332 8.28942 17.045 8.18228C17.0569 8.07513 17.0474 7.9667 17.0171 7.86324C16.9868 7.75979 16.9363 7.66336 16.8685 7.57951C16.8008 7.49567 16.7171 7.42607 16.6223 7.37475C16.3355 7.21615 16.0736 7.01607 15.8452 6.781L17.1069 6.05217C17.2035 6.00057 17.2886 5.93009 17.3573 5.84493C17.4261 5.75977 17.477 5.66165 17.507 5.55642C17.5371 5.45119 17.5457 5.341 17.5323 5.23238C17.5189 5.12376 17.4838 5.01894 17.4291 4.92416C17.3744 4.82937 17.3012 4.74654 17.2139 4.68061C17.1266 4.61467 17.0268 4.56697 16.9207 4.54034C16.8146 4.51371 16.7041 4.50869 16.596 4.52558C16.4879 4.54247 16.3843 4.58093 16.2913 4.63867L15.0296 5.36713C14.9397 5.05167 14.8969 4.72467 14.9027 4.39672C14.905 4.28932 14.8862 4.1825 14.8472 4.0824C14.8082 3.9823 14.7498 3.89088 14.6754 3.81339C14.601 3.73589 14.512 3.67383 14.4136 3.63078C14.3152 3.58773 14.2092 3.56452 14.1018 3.5625H14.0866C13.8727 3.56246 13.6673 3.64639 13.5146 3.79622C13.362 3.94605 13.2742 4.14981 13.2702 4.36369C13.2587 4.98931 13.3657 5.61145 13.5856 6.19727L10.3167 8.08576V4.31137C10.9343 4.20929 11.527 3.99107 12.0634 3.66826C12.2489 3.55651 12.3824 3.37565 12.4345 3.16548C12.4866 2.9553 12.4531 2.73303 12.3414 2.54756C12.2296 2.36209 12.0487 2.2286 11.8386 2.17648C11.6284 2.12435 11.4061 2.15785 11.2207 2.26961C10.9395 2.4386 10.6349 2.56502 10.3167 2.64478V1.41016C10.3167 1.19363 10.2307 0.985976 10.0776 0.83287C9.92445 0.679764 9.71679 0.59375 9.50027 0.59375C9.28374 0.59375 9.07609 0.679764 8.92298 0.83287C8.76988 0.985976 8.68386 1.19363 8.68386 1.41016V2.64478C8.36567 2.56502 8.06104 2.4386 7.77988 2.26961C7.59441 2.15785 7.37213 2.12435 7.16196 2.17648C6.95179 2.2286 6.77093 2.36209 6.65917 2.54756C6.54742 2.73303 6.51392 2.9553 6.56604 3.16548C6.61817 3.37565 6.75165 3.55651 6.93712 3.66826C7.47351 3.99107 8.06621 4.20929 8.68386 4.31137V8.08576L5.4149 6.19727C5.63514 5.61127 5.74242 4.98886 5.73107 4.36295C5.72708 4.14907 5.63931 3.9453 5.48664 3.79547C5.33396 3.64564 5.12858 3.56172 4.91466 3.56176H4.89871C4.79149 3.56374 4.68571 3.58682 4.58742 3.62969C4.48912 3.67256 4.40024 3.73437 4.32583 3.8116C4.25143 3.88882 4.19298 3.97995 4.1538 4.07977C4.11462 4.1796 4.0955 4.28616 4.09752 4.39338C4.1035 4.72181 4.06086 5.04932 3.97097 5.36527L2.70925 4.63867C2.61634 4.58325 2.51334 4.54684 2.40624 4.53158C2.29913 4.51631 2.19006 4.52248 2.08536 4.54973C1.98066 4.57698 1.88243 4.62477 1.79636 4.69032C1.71029 4.75587 1.63811 4.83788 1.58401 4.93157C1.52991 5.02526 1.49497 5.12876 1.48123 5.23607C1.46748 5.34338 1.4752 5.45236 1.50393 5.55666C1.53267 5.66096 1.58185 5.75851 1.64862 5.84364C1.71538 5.92877 1.7984 5.99978 1.89285 6.05254L3.15457 6.78137C2.92617 7.01645 2.66433 7.21652 2.3775 7.37512C2.2827 7.42645 2.19901 7.49604 2.13125 7.57988C2.0635 7.66373 2.01301 7.76016 1.98272 7.86361C1.95243 7.96707 1.94292 8.0755 1.95476 8.18265C1.96659 8.2898 1.99953 8.39354 2.05166 8.48789C2.1038 8.58224 2.17411 8.66534 2.25853 8.73238C2.34295 8.79941 2.43981 8.84907 2.54352 8.87848C2.64723 8.90788 2.75574 8.91646 2.86278 8.90371C2.96982 8.89096 3.07328 8.85714 3.16718 8.8042C3.71497 8.50101 4.20037 8.09681 4.59775 7.61299L7.86746 9.5L4.59849 11.3874C4.20112 10.9036 3.71571 10.4994 3.16793 10.1962C3.07402 10.1432 2.97056 10.1094 2.86352 10.0967C2.75648 10.0839 2.64797 10.0925 2.54426 10.1219C2.44055 10.1513 2.34369 10.201 2.25927 10.268C2.17485 10.335 2.10454 10.4181 2.05241 10.5125C2.00027 10.6068 1.96733 10.7106 1.9555 10.8177C1.94367 10.9249 1.95317 11.0333 1.98346 11.1368C2.01376 11.2402 2.06424 11.3366 2.132 11.4205C2.19975 11.5043 2.28344 11.5739 2.37824 11.6253C2.66507 11.7839 2.92691 11.9839 3.15531 12.219L1.89285 12.9512C1.7984 13.0039 1.71538 13.0749 1.64862 13.1601C1.58185 13.2452 1.53267 13.3428 1.50393 13.4471C1.4752 13.5514 1.46748 13.6603 1.48123 13.7676C1.49497 13.8749 1.52991 13.9785 1.58401 14.0721C1.63811 14.1658 1.71029 14.2478 1.79636 14.3134C1.88243 14.3789 1.98066 14.4267 2.08536 14.454C2.19006 14.4812 2.29913 14.4874 2.40624 14.4721C2.51334 14.4569 2.61634 14.4205 2.70925 14.365L3.97097 13.6366C4.06084 13.952 4.1036 14.279 4.09789 14.607C4.09411 14.8233 4.17632 15.0322 4.32647 15.1879C4.47662 15.3436 4.68243 15.4334 4.89871 15.4375H4.91392C5.12784 15.4375 5.33322 15.3536 5.48589 15.2038C5.63857 15.054 5.72634 14.8502 5.73033 14.6363C5.74183 14.0107 5.6348 13.3885 5.4149 12.8027L8.68386 10.9142V14.6886C8.06621 14.7907 7.47351 15.0089 6.93712 15.3317C6.75165 15.4435 6.61817 15.6244 6.56604 15.8345C6.51392 16.0447 6.54742 16.267 6.65917 16.4524C6.77093 16.6379 6.95179 16.7714 7.16196 16.8235C7.37213 16.8756 7.59441 16.8421 7.77988 16.7304C8.06104 16.5614 8.36567 16.435 8.68386 16.3552V17.5898C8.68386 17.8064 8.76988 18.014 8.92298 18.1671C9.07609 18.3202 9.28374 18.4062 9.50027 18.4062C9.71679 18.4062 9.92445 18.3202 10.0776 18.1671C10.2307 18.014 10.3167 17.8064 10.3167 17.5898V16.3552C10.6349 16.435 10.9395 16.5614 11.2207 16.7304C11.4061 16.8421 11.6284 16.8756 11.8386 16.8235C12.0487 16.7714 12.2296 16.6379 12.3414 16.4524C12.4531 16.267 12.4866 16.0447 12.4345 15.8345C12.3824 15.6244 12.2489 15.4435 12.0634 15.3317C11.527 15.0089 10.9343 14.7907 10.3167 14.6886V10.9142L13.5856 12.8027C13.3654 13.3887 13.2581 14.0111 13.2695 14.6371C13.2735 14.8509 13.3612 15.0547 13.5139 15.2045C13.6666 15.3544 13.872 15.4383 14.0859 15.4382H14.1018C14.209 15.4363 14.3148 15.4132 14.4131 15.3703C14.5114 15.3274 14.6003 15.2656 14.6747 15.1884C14.7491 15.1112 14.8076 15.0201 14.8467 14.9202C14.8859 14.8204 14.905 14.7138 14.903 14.6066C14.897 14.2782 14.9397 13.9507 15.0296 13.6347L16.2913 14.3632C16.3842 14.4228 16.4882 14.463 16.5971 14.4813C16.706 14.4996 16.8175 14.4956 16.9248 14.4696C17.0321 14.4436 17.133 14.3961 17.2214 14.33C17.3098 14.2638 17.3839 14.1804 17.4392 14.0849C17.4944 13.9893 17.5297 13.8835 17.5429 13.7738C17.5562 13.6642 17.547 13.5531 17.516 13.4471C17.485 13.3411 17.4328 13.2425 17.3627 13.1573C17.2925 13.072 17.2057 13.0019 17.1077 12.9512Z" fill="white"/>
</svg>
