<svg width="20" height="18" viewBox="0 0 20 18" fill="none" xmlns="http://www.w3.org/2000/svg">
<path d="M19.9278 2.85771C19.1943 3.19111 18.4037 3.4102 17.5845 3.51498C18.4227 3.01012 19.0705 2.20996 19.3753 1.24786C18.5847 1.72415 17.7083 2.05755 16.7843 2.24806C16.0318 1.42885 14.9744 0.952568 13.7742 0.952568C11.5356 0.952568 9.70669 2.7815 9.70669 5.0391C9.70669 5.36297 9.7448 5.67732 9.81148 5.97262C6.42033 5.80115 3.40068 4.17226 1.39075 1.7051C1.0383 2.30522 0.838262 3.01012 0.838262 3.75313C0.838262 5.17246 1.55269 6.42985 2.65767 7.14428C1.98135 7.14428 1.35265 6.95376 0.800159 6.66799C0.800159 6.66799 0.800159 6.66799 0.800159 6.69657C0.800159 8.67792 2.20996 10.3354 4.077 10.7069C3.73408 10.8021 3.3721 10.8498 3.0006 10.8498C2.7434 10.8498 2.48621 10.8212 2.23854 10.7736C2.75293 12.3834 4.24846 13.5837 6.04882 13.6122C4.65807 14.7172 2.89581 15.365 0.971622 15.365C0.647748 15.365 0.323874 15.3459 0 15.3078C1.80988 16.4699 3.96269 17.1463 6.26791 17.1463C13.7742 17.1463 17.8988 10.9165 17.8988 5.51538C17.8988 5.33439 17.8988 5.16293 17.8893 4.98194C18.6894 4.4104 19.3753 3.68645 19.9278 2.85771Z" fill="white"/>
</svg>
