<svg width="54" height="54" viewBox="0 0 54 54" fill="none" xmlns="http://www.w3.org/2000/svg">
<path d="M27 5.0625C14.9041 5.0625 5.0625 14.9041 5.0625 27C5.0625 39.0959 14.9041 48.9375 27 48.9375C39.0959 48.9375 48.9375 39.0959 48.9375 27C48.9375 14.9041 39.0959 5.0625 27 5.0625ZM27 8.4375C37.27 8.4375 45.5625 16.73 45.5625 27C45.5625 37.27 37.27 45.5625 27 45.5625C16.73 45.5625 8.4375 37.27 8.4375 27C8.4375 16.73 16.73 8.4375 27 8.4375ZM27 13.5C22.3594 13.5 18.5625 17.2969 18.5625 21.9375C18.5625 24.4951 19.7556 26.7693 21.5684 28.3184C17.7715 30.2893 15.1875 34.2576 15.1875 38.8125H18.5625C18.5625 34.1323 22.3198 30.375 27 30.375C31.6802 30.375 35.4375 34.1323 35.4375 38.8125H38.8125C38.8125 34.2576 36.2285 30.2893 32.4316 28.3184C34.2444 26.7693 35.4375 24.4951 35.4375 21.9375C35.4375 17.2969 31.6406 13.5 27 13.5ZM27 16.875C29.8147 16.875 32.0625 19.1228 32.0625 21.9375C32.0625 24.7522 29.8147 27 27 27C24.1853 27 21.9375 24.7522 21.9375 21.9375C21.9375 19.1228 24.1853 16.875 27 16.875Z" fill="#8A29E3"/>
</svg>
