<svg width="19" height="12" viewBox="0 0 19 12" fill="none" xmlns="http://www.w3.org/2000/svg">
<path d="M16.6308 8.04982C18.1073 9.42152 18.4121 10.0788 18.4597 10.1645C19.0694 11.1742 17.7929 11.2505 17.7929 11.2505L15.3353 11.2886C15.3353 11.2886 14.8018 11.3933 14.116 10.9171C13.192 10.2884 12.3061 8.64041 11.6488 8.8595C10.9725 9.07859 10.9916 10.5551 10.9916 10.5551C10.9916 10.5551 10.9916 10.7646 10.8391 10.9266C10.6677 11.1076 10.3343 11.0409 10.3343 11.0409H9.23883C9.23883 11.0409 6.80977 11.2886 4.68554 9.06907C2.35174 6.64954 0.294188 1.88668 0.294188 1.88668C0.294188 1.88668 0.17988 1.60091 0.303714 1.43898C0.4466 1.28657 0.846679 1.28657 0.846679 1.28657H3.47577C3.47577 1.28657 3.73297 1.28657 3.89491 1.43898C4.03779 1.54376 4.12352 1.76285 4.12352 1.76285C4.12352 1.76285 4.54265 2.8202 5.1142 3.79183C6.20965 5.68744 6.71452 6.09705 7.06697 5.89701C7.63851 5.60171 7.47657 3.22028 7.47657 3.22028C7.47657 3.22028 7.4861 2.35344 7.20033 1.97242C6.98123 1.67712 6.5621 1.58186 6.38111 1.56281C6.2287 1.54376 6.47637 1.20083 6.79072 1.0389C7.26701 0.81028 8.09574 0.81028 9.08642 0.81028C9.858 0.81028 10.0771 0.867434 10.3724 0.934114C11.2869 1.15321 10.9725 2.00099 10.9725 4.02044C10.9725 4.67772 10.8772 5.57313 11.325 5.88748C11.525 6.02084 12.0203 5.90653 13.2587 3.8204C13.8302 2.82973 14.2684 1.65807 14.2684 1.65807C14.2684 1.65807 14.3637 1.45803 14.5065 1.36277C14.659 1.28657 14.8685 1.28657 14.8685 1.28657H17.631C17.631 1.28657 18.4692 1.19131 18.6026 1.56281C18.7455 1.95336 18.2882 2.87736 17.1547 4.37289C15.3067 6.84958 15.0971 6.62096 16.6308 8.04982Z" fill="white"/>
</svg>
