<svg width="14" height="20" viewBox="0 0 14 20" fill="none" xmlns="http://www.w3.org/2000/svg">
<path d="M2.618 7.712L5.823 5.384C6.18278 5.12071 6.6204 4.98551 7.066 5C7.6095 5.01355 8.13528 5.19611 8.57025 5.52228C9.00521 5.84846 9.32774 6.30205 9.493 6.82C9.679 7.403 9.849 7.797 10.003 8.002C10.4683 8.6228 11.0719 9.12661 11.7659 9.47343C12.4599 9.82025 13.2252 10.0005 14.001 10V12C12.9683 12.0011 11.9482 11.7733 11.0141 11.3329C10.08 10.8925 9.25519 10.2504 8.599 9.453L7.902 13.408L9.963 15.138L12.186 21.246L10.306 21.93L8.266 16.326L4.876 13.481C4.5978 13.2564 4.38491 12.9612 4.25951 12.6264C4.13411 12.2915 4.10079 11.9291 4.163 11.577L4.672 8.692L3.995 9.184L1.868 12.112L0.25 10.936L2.601 7.7L2.618 7.712ZM8.501 4.5C7.97056 4.5 7.46186 4.28929 7.08679 3.91421C6.71171 3.53914 6.501 3.03043 6.501 2.5C6.501 1.96957 6.71171 1.46086 7.08679 1.08579C7.46186 0.710714 7.97056 0.5 8.501 0.5C9.03143 0.5 9.54014 0.710714 9.91521 1.08579C10.2903 1.46086 10.501 1.96957 10.501 2.5C10.501 3.03043 10.2903 3.53914 9.91521 3.91421C9.54014 4.28929 9.03143 4.5 8.501 4.5ZM5.529 17.681L2.315 21.511L0.783 20.226L3.759 16.68L4.505 14.5L6.296 16L5.529 17.681Z" fill="white"/>
</svg>
