<svg width="19" height="19" viewBox="0 0 19 19" fill="none" xmlns="http://www.w3.org/2000/svg">
<path d="M9.49935 17.1739C10.3738 17.1739 11.0827 16.465 11.0827 15.5906C11.0827 14.7161 10.3738 14.0072 9.49935 14.0072C8.6249 14.0072 7.91602 14.7161 7.91602 15.5906C7.91602 16.465 8.6249 17.1739 9.49935 17.1739Z" fill="#1A1A1A"/>
<path d="M17.2907 4.95056C14.9513 3.48652 12.2472 2.71014 9.48747 2.71014C6.72774 2.71014 4.02367 3.48652 1.68428 4.95056C1.59343 5.00605 1.51462 5.07918 1.4525 5.16563C1.39037 5.25208 1.3462 5.3501 1.32259 5.4539C1.29897 5.5577 1.2964 5.66519 1.31501 5.77C1.33362 5.87482 1.37304 5.97484 1.43094 6.06417L1.489 6.15389C1.60031 6.32192 1.77189 6.4408 1.96832 6.48597C2.16474 6.53115 2.37102 6.49918 2.54456 6.39667C4.62055 5.09231 7.02252 4.40035 9.47428 4.40035C11.926 4.40035 14.328 5.09231 16.404 6.39667C16.5775 6.49918 16.7838 6.53115 16.9802 6.48597C17.1767 6.4408 17.3482 6.32192 17.4596 6.15389L17.5176 6.06417C17.5767 5.97643 17.6178 5.87781 17.6383 5.77404C17.6589 5.67028 17.6587 5.56346 17.6375 5.4598C17.6164 5.35615 17.5749 5.25774 17.5153 5.1703C17.4557 5.08287 17.3794 5.00817 17.2907 4.95056Z" fill="#1A1A1A"/>
<path d="M15.2111 8.14889C13.4914 7.08263 11.5081 6.51768 9.48469 6.51768C7.46125 6.51768 5.478 7.08263 3.7583 8.14889C3.66903 8.20523 3.59185 8.27874 3.53123 8.36516C3.47061 8.45158 3.42776 8.54918 3.40518 8.65229C3.38259 8.75541 3.38071 8.86198 3.39965 8.96583C3.4186 9.06967 3.45798 9.16872 3.51552 9.25722L3.57358 9.34694C3.68489 9.51497 3.85647 9.63385 4.05289 9.67902C4.24932 9.7242 4.45559 9.69223 4.62913 9.58972C6.0837 8.68635 7.76187 8.20764 9.47413 8.20764C11.1864 8.20764 12.8646 8.68635 14.3191 9.58972C14.4927 9.69223 14.6989 9.7242 14.8954 9.67902C15.0918 9.63385 15.2634 9.51497 15.3747 9.34694L15.4327 9.25722C15.4913 9.16999 15.532 9.07205 15.5525 8.96903C15.573 8.86602 15.573 8.75996 15.5524 8.65696C15.5318 8.55396 15.491 8.45604 15.4324 8.36885C15.3739 8.28166 15.2986 8.2069 15.2111 8.14889Z" fill="#1A1A1A"/>
<path d="M13.1319 11.3419C12.0307 10.6798 10.7699 10.33 9.48495 10.33C8.19998 10.33 6.93925 10.6798 5.83801 11.3419C5.74892 11.3978 5.67185 11.4708 5.61129 11.5568C5.55073 11.6427 5.5079 11.7399 5.4853 11.8426C5.4627 11.9452 5.46078 12.0514 5.47966 12.1548C5.49853 12.2583 5.53782 12.3569 5.59523 12.445L5.64801 12.5294C5.76414 12.7011 5.9422 12.8211 6.14487 12.8644C6.34754 12.9077 6.5591 12.8709 6.73523 12.7617C7.56856 12.2711 8.51795 12.0124 9.48495 12.0124C10.452 12.0124 11.4013 12.2711 12.2347 12.7617C12.4114 12.8704 12.6234 12.9064 12.8262 12.8621C13.0289 12.8178 13.2066 12.6967 13.3219 12.5242L13.3747 12.4397C13.432 12.3521 13.4712 12.2538 13.49 12.1508C13.5088 12.0478 13.5068 11.942 13.4842 11.8398C13.4616 11.7375 13.4188 11.6408 13.3583 11.5553C13.2978 11.4698 13.2208 11.3973 13.1319 11.3419Z" fill="#1A1A1A"/>
</svg>
