<svg width="20" height="19" viewBox="0 0 20 19" fill="none" xmlns="http://www.w3.org/2000/svg">
<path d="M10.3743 17.1739C11.2488 17.1739 11.9577 16.465 11.9577 15.5906C11.9577 14.7161 11.2488 14.0072 10.3743 14.0072C9.4999 14.0072 8.79102 14.7161 8.79102 15.5906C8.79102 16.465 9.4999 17.1739 10.3743 17.1739Z" fill="white"/>
<path d="M18.1657 4.95056C15.8263 3.48652 13.1222 2.71014 10.3625 2.71014C7.60274 2.71014 4.89867 3.48652 2.55928 4.95056C2.46843 5.00605 2.38962 5.07917 2.3275 5.16562C2.26537 5.25207 2.2212 5.35009 2.19759 5.4539C2.17397 5.5577 2.1714 5.66518 2.19001 5.77C2.20862 5.87481 2.24804 5.97484 2.30594 6.06417L2.364 6.15389C2.47531 6.32192 2.64689 6.44079 2.84332 6.48597C3.03974 6.53115 3.24602 6.49918 3.41956 6.39667C5.49555 5.09231 7.89752 4.40035 10.3493 4.40035C12.801 4.40035 15.203 5.09231 17.279 6.39667C17.4525 6.49918 17.6588 6.53115 17.8552 6.48597C18.0517 6.44079 18.2232 6.32192 18.3346 6.15389L18.3926 6.06417C18.4517 5.97643 18.4928 5.8778 18.5133 5.77404C18.5339 5.67028 18.5337 5.56345 18.5125 5.4598C18.4914 5.35614 18.4499 5.25773 18.3903 5.1703C18.3307 5.08287 18.2544 5.00817 18.1657 4.95056Z" fill="white"/>
<path d="M16.0861 8.14889C14.3664 7.08263 12.3831 6.51769 10.3597 6.51769C8.33625 6.51769 6.353 7.08263 4.6333 8.14889C4.54403 8.20523 4.46685 8.27875 4.40623 8.36516C4.34561 8.45158 4.30276 8.54918 4.28018 8.6523C4.25759 8.75541 4.25571 8.86199 4.27465 8.96583C4.2936 9.06968 4.33298 9.16873 4.39052 9.25722L4.44858 9.34695C4.55989 9.51498 4.73147 9.63385 4.92789 9.67903C5.12432 9.72421 5.33059 9.69224 5.50413 9.58972C6.9587 8.68636 8.63687 8.20765 10.3491 8.20765C12.0614 8.20765 13.7396 8.68636 15.1941 9.58972C15.3677 9.69224 15.5739 9.72421 15.7704 9.67903C15.9668 9.63385 16.1384 9.51498 16.2497 9.34695L16.3077 9.25722C16.3663 9.16999 16.407 9.07205 16.4275 8.96904C16.448 8.86602 16.448 8.75996 16.4274 8.65696C16.4068 8.55396 16.366 8.45605 16.3074 8.36885C16.2489 8.28166 16.1736 8.20691 16.0861 8.14889Z" fill="white"/>
<path d="M14.0069 11.3419C12.9057 10.6798 11.6449 10.33 10.36 10.33C9.07498 10.33 7.81425 10.6798 6.71301 11.3419C6.62392 11.3978 6.54685 11.4708 6.48629 11.5568C6.42573 11.6427 6.3829 11.7399 6.3603 11.8426C6.3377 11.9452 6.33578 12.0514 6.35466 12.1548C6.37353 12.2583 6.41282 12.3569 6.47023 12.445L6.52301 12.5294C6.63914 12.7011 6.8172 12.8211 7.01987 12.8644C7.22254 12.9077 7.4341 12.8709 7.61023 12.7617C8.44356 12.2711 9.39295 12.0124 10.36 12.0124C11.327 12.0124 12.2763 12.2711 13.1097 12.7617C13.2864 12.8704 13.4984 12.9064 13.7012 12.8621C13.9039 12.8178 14.0816 12.6967 14.1969 12.5242L14.2497 12.4397C14.307 12.3521 14.3462 12.2538 14.365 12.1508C14.3838 12.0478 14.3818 11.942 14.3592 11.8398C14.3366 11.7375 14.2938 11.6408 14.2333 11.5553C14.1728 11.4698 14.0958 11.3973 14.0069 11.3419Z" fill="white"/>
</svg>
