<svg width="1494" height="608" viewBox="0 0 1494 608" fill="none" xmlns="http://www.w3.org/2000/svg">
<path d="M300.968 456.533H0.860001V395.837L292.538 8.89996H380.21V387.407H456.08V456.533H380.21V599H300.968V456.533ZM300.968 387.407V101.63L85.16 387.407H300.968ZM759.856 607.43C731.194 607.43 703.937 602.653 678.085 593.099C652.795 583.545 630.596 567.247 611.488 544.205C592.38 520.601 577.206 489.41 565.966 450.632C554.726 411.292 549.106 362.398 549.106 303.95V287.09C549.106 232.576 554.726 187.054 565.966 150.524C577.206 113.994 592.38 84.77 611.488 62.852C630.596 40.372 652.795 24.355 678.085 14.801C703.937 5.24697 731.194 0.469968 759.856 0.469968C788.518 0.469968 815.494 5.24697 840.784 14.801C866.636 24.355 889.116 40.372 908.224 62.852C927.332 84.77 942.506 113.994 953.746 150.524C964.986 187.054 970.606 232.576 970.606 287.09V303.95C970.606 362.398 964.986 411.292 953.746 450.632C942.506 489.41 927.332 520.601 908.224 544.205C889.116 567.247 866.636 583.545 840.784 593.099C815.494 602.653 788.518 607.43 759.856 607.43ZM759.856 538.304C777.278 538.304 793.857 535.213 809.593 529.031C825.891 522.287 839.941 510.485 851.743 493.625C864.107 476.203 873.661 452.318 880.405 421.97C887.711 391.622 891.364 352.282 891.364 303.95V287.09C891.364 243.254 887.711 207.286 880.405 179.186C873.661 151.086 864.107 128.887 851.743 112.589C839.941 96.291 825.891 85.051 809.593 78.869C793.857 72.687 777.278 69.596 759.856 69.596C741.872 69.596 725.012 72.687 709.276 78.869C693.54 85.051 679.49 96.291 667.126 112.589C655.324 128.887 645.77 151.086 638.464 179.186C631.72 207.286 628.348 243.254 628.348 287.09V303.95C628.348 352.282 631.72 391.622 638.464 421.97C645.77 452.318 655.324 476.203 667.126 493.625C679.49 510.485 693.54 522.287 709.276 529.031C725.012 535.213 741.872 538.304 759.856 538.304ZM1338.25 456.533H1038.15V395.837L1329.82 8.89996H1417.5V387.407H1493.37V456.533H1417.5V599H1338.25V456.533ZM1338.25 387.407V101.63L1122.45 387.407H1338.25Z" fill="#1A1A1A"/>
</svg>
