<svg width="679" height="679" viewBox="0 0 679 679" fill="none" xmlns="http://www.w3.org/2000/svg">
<g filter="url(#filter0_d)">
<path d="M339.5 154C237.219 154 154 237.219 154 339.5C154 441.781 237.219 525 339.5 525C441.781 525 525 441.781 525 339.5C525 237.219 441.781 154 339.5 154ZM339.5 182.538C426.342 182.538 496.462 252.658 496.462 339.5C496.462 426.342 426.342 496.462 339.5 496.462C252.658 496.462 182.538 426.342 182.538 339.5C182.538 252.658 252.658 182.538 339.5 182.538ZM325.231 253.885V282.423H353.769V253.885H325.231ZM325.231 310.962V425.115H353.769V310.962H325.231Z" fill="white"/>
</g>
<defs>
<filter id="filter0_d" x="0" y="0" width="679" height="679" filterUnits="userSpaceOnUse" color-interpolation-filters="sRGB">
<feFlood flood-opacity="0" result="BackgroundImageFix"/>
<feColorMatrix in="SourceAlpha" type="matrix" values="0 0 0 0 0 0 0 0 0 0 0 0 0 0 0 0 0 0 127 0"/>
<feOffset/>
<feGaussianBlur stdDeviation="77"/>
<feColorMatrix type="matrix" values="0 0 0 0 0 0 0 0 0 0 0 0 0 0 0 0 0 0 0.25 0"/>
<feBlend mode="normal" in2="BackgroundImageFix" result="effect1_dropShadow"/>
<feBlend mode="normal" in="SourceGraphic" in2="effect1_dropShadow" result="shape"/>
</filter>
</defs>
</svg>
