<svg width="129" height="36" viewBox="0 0 129 36" fill="none" xmlns="http://www.w3.org/2000/svg">
<g clip-path="url(#clip0)">
<path d="M56.5243 12.664C53.4389 12.664 51.2036 13.3928 51.2036 18C51.2036 22.6072 53.4217 23.3403 56.5243 23.3403C59.627 23.3403 61.845 22.6072 61.845 18C61.845 13.3928 59.614 12.664 56.5243 12.664ZM56.5243 27.2925C51.2727 27.2925 46.3145 23.9694 46.3145 18C46.3145 12.0306 51.3115 8.70752 56.5243 8.70752C61.7371 8.70752 66.7342 12.0306 66.7342 18C66.7342 23.9694 61.7803 27.2925 56.5243 27.2925Z" fill="white"/>
<path d="M42.6649 35.9959H129V0.00604248H0V35.9959H19.4747V32.0047H3.96571L3.97003 4.00154H125.034L125.03 32.0047H42.2031L42.6649 35.9959Z" fill="white"/>
<path d="M45.6745 35.9949H40.9709L34.0449 9.18475H38.7399L45.6745 35.9949Z" fill="white"/>
<path d="M25.8276 23.0237H19.195V19.6268H25.8276C26.8805 19.6268 27.4199 20.2689 27.4199 21.3274C27.4199 22.386 26.8805 23.0237 25.8276 23.0237ZM19.195 12.8983H25.0292C25.9052 12.8983 26.3022 13.6141 26.3022 14.4904C26.3022 15.3711 25.9052 16.0869 25.0292 16.0869H19.195V12.8983ZM31.1353 13.6748C31.1353 11.1933 28.9777 9.18475 25.7197 9.18475C25.5945 9.18475 14.582 9.18475 14.582 9.18475V26.8153H19.0613C19.0613 26.8153 24.615 26.8153 26.3497 26.8153C30.0694 26.8153 32.322 24.5551 32.322 21.7656C32.322 19.7049 30.6563 17.3406 28.5203 17.3406H27.8298V16.9024H28.4771C30.0738 16.9024 31.1353 15.0977 31.1353 13.6748Z" fill="white"/>
<path d="M79.9564 12.664C76.8667 12.664 74.6357 13.3928 74.6357 18C74.6357 22.6072 76.8537 23.3403 79.9564 23.3403C83.0547 23.3403 85.2339 22.6072 85.2728 18C85.3159 13.3928 83.0418 12.664 79.9564 12.664ZM79.9564 27.2925C74.7004 27.2925 69.7422 23.9694 69.7422 18C69.7422 12.0306 74.7392 8.70752 79.9564 8.70752C85.1692 8.70752 90.162 12.0306 90.162 18C90.162 23.9694 85.208 27.2925 79.9564 27.2925Z" fill="white"/>
<path d="M115.368 9.18475C115.368 15.0283 115.368 20.9717 115.368 26.8153H110.738V18.1649V14.4253V13.9698H110.306V13.9872C110.306 14.9719 110.047 16.0391 109.271 17.9827L107.299 22.8935H105.616H103.695H102.017L100.045 17.9827C99.2636 16.0348 99.009 14.9763 99.009 13.9872V13.9698H98.5732V14.4253V18.1649V26.8153H93.9473C93.9473 20.9717 93.9473 15.0283 93.9473 9.18475H97.3649H98.5732H100.955L104.261 18.0824C104.39 18.4338 104.438 18.9197 104.438 19.2971V19.4143H104.873V19.2971C104.873 18.9197 104.921 18.4338 105.055 18.0824L108.36 9.18475H110.738H111.95H115.368Z" fill="white"/>
</g>
<defs>
<clipPath id="clip0">
<rect width="129" height="36" fill="white"/>
</clipPath>
</defs>
</svg>
