<svg width="92" height="22" viewBox="0 0 92 22" fill="none" xmlns="http://www.w3.org/2000/svg">
<path fill-rule="evenodd" clip-rule="evenodd" d="M49.4609 5.327C49.6821 5.54844 51.6736 10.8237 51.8819 11.475C52.0893 12.1728 52.3822 12.8422 52.754 13.4679C53.4439 13.6242 53.509 12.9339 53.7172 12.3868C54.8496 9.43002 56.5678 5.1186 57.4269 2.21392C58.0257 0.807169 58.0777 0.429431 56.9974 0.429431C55.917 0.429431 56.0341 1.13281 55.6046 2.04459C55.2271 3.77697 53.7693 7.43713 53.2356 9.11741C53.2356 9.33885 53.2356 9.33885 52.9623 9.33885C52.0641 6.83796 51.0228 3.77697 50.0075 1.30214C49.7342 0.820195 49.2526 0.715991 48.9272 1.7971C48.3805 3.51646 47.6255 5.56146 47.0398 7.22872C47.0398 7.22872 46.3369 9.33885 46.2848 9.44305C45.9126 8.84412 45.64 8.18865 45.4778 7.50226C44.6708 5.50936 43.9679 3.36016 43.2781 1.36726C43.1088 0.989526 43.1088 0.768093 42.7314 0.54666C42.353 0.406353 41.9439 0.370364 41.5469 0.442456C40.4795 0.611787 41.1694 1.47147 41.3907 2.10972C42.6923 5.61356 44.1371 9.82079 45.582 13.1553C45.6158 13.2379 45.6708 13.3102 45.7414 13.3648C45.812 13.4193 45.8957 13.4543 45.9841 13.4662C46.0726 13.4781 46.1626 13.4665 46.2451 13.4325C46.3276 13.3985 46.3997 13.3433 46.4541 13.2725C46.6623 12.8687 49.3047 5.327 49.4609 5.327Z" fill="white"/>
<path fill-rule="evenodd" clip-rule="evenodd" d="M0.207394 0.651448C0.153588 0.868435 0.171865 1.09705 0.259459 1.30272C0.480738 2.2145 -0.170082 12.6088 -0.000868894 13.0256C0.526002 13.2627 1.11672 13.3177 1.67825 13.1819C1.93858 12.9084 1.83444 12.6479 1.83444 12.2181C1.83444 10.3815 1.99064 8.61 1.99064 6.72131C2.05572 6.01794 2.10779 5.536 2.10779 5.10615C2.10779 4.67631 2.10779 4.72842 2.21192 4.62421C2.31605 4.52001 4.0212 7.48981 4.19042 7.81545C4.51583 8.4537 5.15363 9.43061 5.58317 10.1861C6.23399 11.3714 6.5594 10.5638 6.7156 10.2903C7.09307 9.80834 10.0088 4.68934 10.217 4.58514C10.4123 4.79354 10.4123 9.91255 10.4123 10.2903C10.4123 13.0908 10.0868 13.3643 11.8571 13.2471C12.4038 13.2471 12.4558 12.8172 12.4038 12.3353C12.4038 11.4235 12.4038 10.3945 12.4038 9.48271C12.2606 7.16418 12.1565 4.52001 12.1565 2.2145C12.1565 1.94097 12.2606 0.911957 12.2606 0.755652C12.1012 0.575958 11.8854 0.456068 11.6487 0.415804C11.412 0.37554 11.1687 0.417314 10.9589 0.534219C10.5815 0.755652 10.4773 1.23759 10.204 1.56323C9.11062 3.50402 7.63976 5.70533 6.61147 7.54192C6.23399 8.19319 6.23399 7.97176 5.90858 7.54192C5.2057 6.5129 4.29455 4.74144 3.65674 3.71243L2.3551 1.56323C2.17417 1.18974 1.94197 0.843387 1.66523 0.534219C1.30077 0.27371 0.58487 0.482117 0.207394 0.651448Z" fill="white"/>
<path fill-rule="evenodd" clip-rule="evenodd" d="M68.8956 6.68188C69.3563 6.30572 69.9028 6.04941 70.4865 5.93578C71.0702 5.82215 71.6728 5.85473 72.2409 6.03061C73.959 6.78609 74.1803 9.32605 73.4253 10.5635C73.1038 11.0457 72.6406 11.4162 72.0997 11.6239C71.5588 11.8315 70.9669 11.8661 70.4055 11.7227C69.8618 11.6153 69.347 11.3933 68.8956 11.0715V6.68188ZM68.8956 4.84529C68.8145 3.42668 68.8145 2.00458 68.8956 0.585967C68.8956 -0.000178223 68.6874 -0.104382 68.1407 0.104025C66.839 0.651095 66.839 0.429662 67.0213 1.61498C67.1254 2.21415 67.0213 9.15672 67.0213 10.1336C67.0213 12.0614 66.7479 12.5043 69.5465 13.3118C70.3433 13.4791 71.1657 13.4834 71.9643 13.3245C72.7628 13.1655 73.521 12.8467 74.1933 12.387C76.9398 10.1336 76.1848 3.77721 71.1735 4.25915C70.7367 4.2828 70.3019 4.33502 69.8719 4.41545C69.7027 4.46756 69.0648 4.84529 68.9867 4.84529H68.8956Z" fill="white"/>
<path fill-rule="evenodd" clip-rule="evenodd" d="M30.9386 13.1425C31.1422 12.4632 31.1998 11.7486 31.1078 11.0454C31.0545 10.3083 31.0545 9.56824 31.1078 8.83109C31.264 8.83109 31.4332 9.10462 31.7587 9.43026C32.0841 9.7559 34.7654 12.5564 35.195 12.869C35.3449 13.0086 35.5255 13.1108 35.7223 13.1674C35.919 13.2239 36.1264 13.2333 36.3274 13.1946C36.7049 13.1946 37.3036 13.1946 37.5119 12.9341C37.5119 12.5564 36.757 11.9572 36.4315 11.6316C36.1061 11.3059 35.6896 10.8891 35.3121 10.4462C34.4842 9.71711 33.7099 8.9292 32.9952 8.08864C32.9952 7.97141 35.9499 5.48355 36.4966 5.01463C36.7049 4.7932 36.9262 4.7411 36.8741 4.41546C36.2041 4.20865 35.4875 4.20865 34.8175 4.41546C34.5572 4.53269 32.7739 6.14785 32.2923 6.57769C32.1361 6.73399 31.212 7.7109 31.1078 7.6588C30.9516 7.16383 31.1078 0.429668 31.0037 0.0519299C30.8996 -0.325808 29.0643 0.273363 29.1163 0.924636C29.2184 1.38223 29.2707 1.84951 29.2725 2.31836V11.6316C29.2725 11.9572 29.1684 12.9341 29.3897 13.0904C29.8961 13.2199 30.4246 13.2377 30.9386 13.1425Z" fill="white"/>
<path fill-rule="evenodd" clip-rule="evenodd" d="M16.9201 8.72682C17.5188 8.57051 19.5234 9.05245 19.6145 9.5865C19.6665 10.1628 19.6665 10.7426 19.6145 11.3189C19.237 11.8008 16.6467 12.7647 15.7877 11.0453C15.6719 10.8011 15.6118 10.5342 15.6118 10.2638C15.6118 9.99349 15.6719 9.72654 15.7877 9.48229C15.9126 9.2837 16.0781 9.11375 16.2733 8.98356C16.4684 8.85338 16.6888 8.76589 16.9201 8.72682ZM19.6666 8.07554C19.1608 7.74024 18.5951 7.50583 18.0005 7.38519C17.2595 7.30309 16.5098 7.35604 15.7877 7.5415C15.1797 7.71576 14.6436 8.08065 14.2582 8.58251C13.8729 9.08437 13.6586 9.69671 13.647 10.3295C13.6353 10.9623 13.8269 11.5821 14.1935 12.0978C14.5601 12.6136 15.0824 12.998 15.6835 13.1945C16.7131 13.5459 17.83 13.5459 18.8595 13.1945C19.0808 13.0903 19.5104 12.8168 19.6666 12.7647C19.8227 12.7126 19.8878 13.1424 20.0961 13.2467C20.3044 13.3509 21.2806 13.2467 21.5539 12.9861C21.8273 12.7256 21.8793 12.7647 21.7101 12.387C21.4583 11.8886 21.3673 11.3242 21.4498 10.7718V6.89023C21.5179 6.34062 21.3837 5.785 21.0723 5.32717C20.044 3.28217 13.8482 4.08975 14.3428 5.82214C14.8375 7.55452 15.6445 5.22297 18.3779 5.5486C19.8488 5.70491 19.6926 7.11166 19.6926 8.07554H19.6666Z" fill="white"/>
<path fill-rule="evenodd" clip-rule="evenodd" d="M83.3826 7.81539H78.918C78.9778 7.28056 79.2217 6.78322 79.6078 6.40864C80.0293 6.03875 80.5589 5.8149 81.1177 5.77039C81.4088 5.74633 81.7018 5.78122 81.9791 5.87298C82.2564 5.96473 82.5124 6.11147 82.7318 6.30444C82.9526 6.48626 83.1269 6.71822 83.2401 6.98102C83.3533 7.24383 83.4021 7.52988 83.3826 7.81539ZM78.8008 9.20911C79.1262 9.05281 84.0074 9.20911 84.8925 9.20911C85.7776 9.20911 85.3741 6.30444 83.7601 5.11912C83.1007 4.62718 82.3157 4.33189 81.4957 4.26735C80.6758 4.2028 79.8543 4.37163 79.1262 4.75435C78.398 5.13706 77.7929 5.71806 77.3806 6.43025C76.9683 7.14244 76.7658 7.95679 76.7963 8.77927C76.7654 9.57811 76.9511 10.3704 77.3338 11.0722C77.7165 11.7739 78.2819 12.3589 78.97 12.7651C80.4148 13.742 84.2937 13.6899 84.7753 12.1789C85.3741 10.2381 83.9683 11.3192 83.4737 11.5276C83.0577 11.6983 82.6193 11.808 82.1721 11.8533C79.2954 12.1789 78.5925 9.63895 78.8008 9.20911Z" fill="white"/>
<path fill-rule="evenodd" clip-rule="evenodd" d="M59.263 7.81469C59.3086 7.25836 59.5614 6.73946 59.9712 6.36074C60.381 5.98202 60.918 5.77109 61.4758 5.76969C62.5952 5.65247 63.8968 6.62938 63.6755 7.81469H59.263ZM59.0417 9.11724C59.315 9.11724 64.3784 9.11724 65.0813 9.11724C65.7842 9.11724 65.6671 8.6874 65.615 8.15335C65.577 7.43012 65.3519 6.72917 64.9617 6.11917C64.5716 5.50917 64.0298 5.01104 63.3894 4.67357C62.7491 4.33609 62.0321 4.17086 61.3088 4.19404C60.5854 4.21722 59.8804 4.42803 59.263 4.80581C58.5687 5.21628 58.0009 5.81033 57.622 6.52268C57.2431 7.23504 57.0678 8.03813 57.1153 8.8437C57.06 9.63892 57.239 10.4329 57.63 11.1274C58.0209 11.8219 58.6068 12.3865 59.315 12.7513C61.1504 13.8846 64.7559 13.4026 65.0813 12.1131C65.0813 11.7354 65.3416 10.8105 64.7559 11.032C64.0484 11.4322 63.2782 11.7097 62.478 11.8526C62.0515 11.9096 61.6179 11.8814 61.2023 11.7696C60.7867 11.6578 60.3975 11.4647 60.057 11.2013C59.5884 10.8236 58.8334 9.69036 59.0417 9.11724Z" fill="white"/>
<path fill-rule="evenodd" clip-rule="evenodd" d="M88.2765 13.1947C88.6019 12.8691 88.5498 12.7128 88.5498 12.2309V10.9283C88.5498 9.20895 88.2244 6.35638 90.2159 5.92654C90.6454 5.82233 90.7496 6.18705 91.2963 6.08284C91.6186 5.7934 91.8608 5.42546 91.9991 5.01475C91.9991 4.19415 90.6975 4.03784 89.513 4.57189C89.1355 4.74122 88.8231 5.32737 88.5498 5.37947C88.5498 4.89753 88.6539 4.68912 88.3285 4.25928C87.9113 4.29931 87.5075 4.4281 87.144 4.63702C86.6104 4.89752 86.5062 4.89753 86.6104 5.5488C86.7145 6.20007 86.6104 10.6678 86.6104 11.7359C86.6624 13.3641 86.6624 13.312 88.2765 13.1947Z" fill="white"/>
<path fill-rule="evenodd" clip-rule="evenodd" d="M24.8092 13.1426V13.0384C24.9603 11.7155 24.9995 10.3821 24.9263 9.05262C24.9263 8.02361 25.1867 6.35635 26.3191 6.03071C27.2302 5.70508 27.2823 6.56476 27.8811 6.03071C29.2738 4.57186 27.3995 3.98572 26.267 4.46766C25.1346 4.9496 25.2908 5.32734 24.9654 5.43154C24.9392 5.2196 24.9392 5.00524 24.9654 4.79329C24.9654 4.51976 24.8482 4.51976 24.7441 4.36345C24.3268 4.36005 23.9167 4.4728 23.5596 4.68909C23.0259 4.8975 22.8567 4.9496 23.0259 5.60087C23.1404 6.59948 23.1753 7.60562 23.1301 8.60975V11.5796C23.2472 13.1947 23.0259 13.3119 24.8092 13.1426Z" fill="white"/>
<path fill-rule="evenodd" clip-rule="evenodd" d="M49.0843 14.8751C46.9355 15.1404 44.8227 15.6428 42.7844 16.373C42.1466 16.6466 41.4827 16.8029 40.8449 17.0764C39.5433 17.5584 38.3197 17.9882 37.0311 18.4832C36.6016 18.6395 33.5297 19.5513 32.996 19.6685C30.3927 20.3067 26.4878 21.0622 24.0017 19.929C22.8172 19.3429 22.7 21.1664 25.3944 21.8177C26.9701 22.0938 28.587 22.0227 30.1324 21.6093C31.4341 21.3357 32.996 20.8538 34.2326 20.4761C35.4691 20.0983 36.927 19.6685 38.2677 19.2908C38.5931 19.1735 38.8534 19.0693 39.2309 18.9651L41.2224 18.3659C41.5999 18.2617 41.8732 18.1054 42.1986 17.9882L44.2552 17.5063C44.6327 17.4021 44.906 17.2979 45.2314 17.1806C47.9567 16.5988 50.7363 16.3106 53.5229 16.3209C54.2128 16.3209 55.2411 16.4903 55.944 16.5945C57.2456 16.7508 56.9592 16.0604 56.1001 15.6176C53.8665 14.7611 51.4476 14.5051 49.0843 14.8751Z" fill="white"/>
</svg>
